<?xml version="1.0" standalone="no"?>
<!DOCTYPE svg PUBLIC "-//W3C//DTD SVG 20010904//EN"
 "http://www.w3.org/TR/2001/REC-SVG-20010904/DTD/svg10.dtd">
<svg version="1.0" xmlns="http://www.w3.org/2000/svg"
 width="211.000000pt" height="238.000000pt" viewBox="0 0 211.000000 238.000000"
 preserveAspectRatio="xMidYMid meet">

<g transform="translate(0.000000,238.000000) scale(0.100000,-0.100000)"
fill="#000000" stroke="none">
<path d="M567 2260 c-32 -3 -61 -10 -65 -16 -4 -6 -17 -14 -29 -18 -13 -4 -26
-19 -30 -34 -3 -14 -15 -41 -26 -59 -12 -22 -21 -60 -24 -112 -6 -77 -5 -80
14 -75 12 3 24 1 27 -5 4 -6 1 -11 -8 -11 -35 0 -29 -82 16 -199 l9 -23 19 25
c27 34 25 63 -4 82 -30 20 -33 59 -4 44 10 -6 15 -15 12 -21 -4 -7 -3 -8 4 -4
7 4 12 15 12 24 0 14 2 14 9 3 6 -9 11 0 16 30 8 50 18 68 71 126 62 66 149
86 198 44 38 -33 62 -110 34 -112 -7 0 -4 -4 7 -9 18 -7 19 -8 3 -15 -18 -7
-26 -45 -10 -45 5 0 14 -11 22 -24 11 -22 10 -30 -10 -68 -36 -71 -103 -150
-137 -164 -18 -8 -37 -24 -44 -36 -13 -27 -76 -88 -89 -88 -5 0 -7 -7 -3 -16
3 -9 8 -11 12 -6 7 11 93 72 129 91 22 12 23 11 13 -7 -6 -11 -18 -23 -28 -26
-15 -6 -15 -8 -3 -16 10 -7 11 -10 3 -10 -7 0 -13 -5 -13 -11 0 -5 5 -7 11 -3
21 13 -91 -191 -142 -259 -65 -86 -95 -103 -144 -83 -19 8 -35 19 -36 23 0 4
-2 60 -4 123 -7 251 -9 280 -17 280 -18 0 -52 -259 -38 -295 7 -20 6 -25 -5
-25 -18 0 -19 -18 -5 -56 6 -14 15 -58 20 -96 11 -76 29 -123 60 -156 11 -12
20 -25 20 -29 0 -5 9 -15 19 -23 11 -7 18 -17 15 -22 -3 -4 2 -11 11 -15 19
-7 36 13 28 34 -9 23 16 14 40 -14 12 -15 40 -44 62 -65 53 -51 65 -49 216 34
44 25 46 25 57 7 7 -11 19 -19 27 -19 8 0 19 -8 25 -17 10 -16 11 -16 5 2 -4
11 -11 49 -16 85 -5 36 -18 106 -28 155 -11 50 -24 130 -31 179 -11 91 -24
131 -39 121 -21 -12 -51 75 -51 149 0 33 6 52 20 66 11 11 20 23 20 28 0 4 16
18 35 30 30 21 38 23 69 12 20 -6 46 -25 59 -41 16 -20 24 -25 24 -15 0 9 -4
16 -8 16 -3 0 -9 9 -12 20 -3 12 -1 18 5 14 7 -5 9 2 5 18 -4 13 -11 69 -17
124 -22 201 -67 371 -96 360 -6 -2 -18 4 -27 15 -9 10 -13 19 -7 19 5 0 14 -8
19 -17 6 -10 11 -13 11 -7 0 17 -27 37 -40 29 -6 -4 -18 -1 -27 7 -9 7 -28 19
-42 25 -21 11 -22 12 -3 7 12 -3 22 -1 22 5 0 6 -22 13 -50 17 -27 4 -48 10
-45 14 5 8 3 8 -78 0z m43 -45 c16 -19 0 -19 -26 0 -16 12 -16 14 -3 15 9 0
22 -7 29 -15z m-180 -319 c-5 -13 -6 -28 -2 -32 4 -5 1 -4 -5 1 -13 11 -7 55
8 55 5 0 4 -11 -1 -24z m49 -16 c0 -10 -3 -8 -9 5 -12 27 -12 43 0 25 5 -8 9
-22 9 -30z"/>
<path d="M590 1950 c0 -6 29 -10 68 -9 46 0 61 3 47 9 -28 12 -115 12 -115 0z"/>
<path d="M617 1913 c-30 -8 -13 -28 27 -31 48 -4 67 3 60 23 -6 15 -46 19 -87
8z"/>
<path d="M678 1732 c-10 -2 -18 -7 -18 -12 0 -11 30 -21 41 -14 5 3 9 -1 9 -8
0 -9 3 -9 10 2 5 8 10 11 10 6 0 -5 7 -3 15 4 13 11 13 15 3 21 -7 5 -20 8
-28 8 -10 0 -8 -3 5 -9 19 -8 19 -9 -2 -9 -12 -1 -23 3 -25 7 -1 4 -11 6 -20
4z"/>
<path d="M620 1620 c0 -5 9 -10 21 -10 11 0 17 5 14 10 -3 6 -13 10 -21 10 -8
0 -14 -4 -14 -10z"/>
<path d="M112 1315 c-14 -30 -25 -31 -62 -5 -24 17 -29 18 -40 6 -14 -18 13
-76 36 -76 12 0 15 -10 13 -47 -4 -54 4 -58 44 -26 22 17 30 34 38 84 8 50 7
65 -4 76 -11 12 -15 10 -25 -12z"/>
<path d="M1031 1068 c-1 -52 1 -58 19 -58 23 0 24 3 11 28 -5 9 -14 33 -19 52
-10 34 -10 33 -11 -22z"/>
<path d="M1338 953 c7 -3 16 -2 19 1 4 3 -2 6 -13 5 -11 0 -14 -3 -6 -6z"/>
<path d="M40 941 c0 -18 31 -155 36 -160 3 -3 9 0 13 7 4 8 16 15 26 16 11 2
22 9 25 17 4 8 12 24 18 36 7 12 9 29 6 37 -8 20 12 29 35 16 13 -6 18 -16 14
-27 -4 -11 -2 -14 8 -11 20 7 23 42 4 58 -11 9 -25 10 -57 2 -28 -7 -48 -8
-61 -1 -10 6 -21 8 -24 5 -3 -3 -14 -1 -24 5 -12 6 -19 6 -19 0z"/>
<path d="M1290 934 c-14 -10 -43 -33 -65 -53 -21 -20 -33 -28 -26 -19 11 15
11 19 -2 24 -9 3 -13 12 -10 20 3 8 2 14 -2 14 -10 0 -95 -94 -95 -105 0 -5
11 -45 25 -87 13 -42 33 -119 44 -170 27 -125 55 -202 96 -262 46 -69 52 -99
25 -126 -14 -14 -28 -19 -41 -15 -14 5 -21 0 -28 -18 -15 -40 -35 -46 -28 -9
7 32 -6 81 -31 120 -8 12 -17 20 -20 18 -2 -3 3 -17 12 -30 21 -33 20 -37 -8
-33 -53 7 -83 57 -58 98 8 15 12 34 8 44 -5 15 -12 13 -64 -16 -118 -67 -131
-76 -128 -104 2 -16 -2 -25 -10 -25 -8 0 -14 -9 -14 -21 0 -31 -18 -59 -35
-53 -11 5 -13 2 -9 -10 7 -18 8 -17 -56 -21 -25 -2 -50 1 -57 6 -20 17 -22 -5
-6 -54 l15 -47 694 0 694 0 0 40 c0 28 -4 40 -14 40 -8 0 -17 6 -20 13 -5 9
-7 9 -12 0 -8 -18 -34 -16 -55 3 -18 16 -44 11 -34 -7 4 -5 2 -9 -4 -9 -5 0
-11 6 -13 12 -4 12 -25 12 -190 4 -20 -1 -40 -5 -44 -9 -4 -4 -16 -7 -26 -7
-10 0 -18 -5 -18 -12 0 -6 -7 -4 -18 5 -10 10 -26 17 -35 17 -9 0 -17 7 -17
15 0 8 -3 15 -6 15 -11 0 -50 -23 -71 -43 -13 -11 -23 -16 -23 -10 0 6 15 20
33 32 38 25 24 27 -28 5 -20 -8 -39 -13 -41 -11 -10 9 79 37 98 31 13 -4 18
-2 14 4 -3 6 2 13 11 15 10 3 -4 5 -30 6 -26 0 -64 -6 -84 -14 -43 -18 -40
-18 -40 0 0 9 6 14 14 11 7 -3 13 -1 13 5 0 6 7 9 15 6 8 -4 17 -2 20 3 4 6
15 10 26 10 24 0 26 37 2 43 -15 4 -15 5 2 6 11 0 35 -3 53 -9 28 -8 32 -7 22
5 -6 8 -21 16 -33 18 -18 4 -17 5 6 6 23 1 27 5 27 30 0 24 -3 28 -20 24 -21
-5 -28 11 -10 22 18 11 0 25 -31 25 -27 0 -35 12 -30 43 1 5 -3 6 -9 2 -5 -3
-10 -1 -10 5 0 6 -4 8 -10 5 -5 -3 -10 4 -10 16 0 18 2 19 15 9 12 -10 16 -9
21 5 4 10 2 26 -4 36 -7 10 -12 27 -11 36 0 16 2 15 9 -2 8 -19 9 -19 9 3 1
14 -5 22 -16 23 -15 0 -15 2 2 9 l20 9 -20 0 c-11 1 -16 5 -10 9 14 10 38 65
25 57 -5 -3 -10 2 -11 12 0 10 -3 13 -6 6 -2 -7 -13 -13 -22 -13 -14 0 -18
-10 -20 -47 -2 -56 -11 -72 -11 -19 0 30 -3 37 -15 32 -37 -15 -48 -16 -24 -2
14 8 40 29 58 45 38 36 48 38 54 14 4 -17 5 -17 6 0 0 9 6 17 11 17 6 0 10 -8
11 -17 1 -12 4 -9 8 7 4 14 3 28 -1 31 -5 3 -7 18 -4 32 3 19 0 27 -10 27 -8
0 -21 6 -28 12 -11 11 -9 17 13 36 l26 23 -37 -7 c-25 -4 -38 -2 -38 5 0 6 8
11 18 11 9 1 28 8 42 16 24 14 22 15 -40 11 -36 -2 -55 -2 -44 0 16 3 20 9 17
24 -7 24 -19 24 -68 -2 l-40 -21 19 21 c11 11 15 21 10 21 -5 0 -24 -17 -42
-37 -19 -22 -28 -28 -22 -16 5 12 14 25 20 28 5 3 19 20 32 37 12 17 17 28 10
24 -7 -4 -12 -2 -12 3 0 6 5 11 11 11 5 0 7 4 4 10 -7 12 -59 -12 -92 -42 -20
-19 -21 -19 -20 -1 1 10 11 26 22 35 26 22 17 23 -15 2z m122 -151 c-6 -2 -10
-8 -7 -13 3 -4 -8 -10 -23 -13 l-27 -5 24 19 c13 10 28 19 35 18 7 0 6 -2 -2
-6z m78 -63 c-8 -5 -22 -10 -30 -10 -13 0 -13 1 0 10 8 5 22 10 30 10 13 0 13
-1 0 -10z m40 -35 c0 -8 -4 -15 -8 -15 -5 0 -9 7 -9 15 0 8 4 15 9 15 4 0 8
-7 8 -15z m-35 -5 c-3 -5 -14 -10 -23 -10 -15 0 -15 2 -2 10 20 13 33 13 25 0z
m-35 -40 c-8 -5 -19 -10 -25 -10 -5 0 -3 5 5 10 8 5 20 10 25 10 6 0 3 -5 -5
-10z m-107 -100 c-3 -12 -8 -19 -11 -16 -5 6 5 36 12 36 2 0 2 -9 -1 -20z
m-33 -50 l-7 -45 -2 41 c0 22 2 44 6 47 10 11 11 5 3 -43z m169 -16 c1 -7 -6
-14 -14 -18 -11 -4 -14 0 -11 17 3 12 5 29 6 37 1 10 4 9 10 -5 5 -11 9 -25 9
-31z m-47 -96 c-6 -6 -12 -6 -16 1 -4 6 -2 11 3 11 6 0 12 25 13 58 l2 57 3
-59 c2 -32 0 -63 -5 -68z m-122 35 c0 -22 -17 -50 -24 -42 -5 5 15 59 22 59 1
0 2 -8 2 -17z m147 -15 c-3 -8 -6 -5 -6 6 -1 11 2 17 5 13 3 -3 4 -12 1 -19z
m-30 -85 c-3 -10 -5 -4 -5 12 0 17 2 24 5 18 2 -7 2 -21 0 -30z m-476 -56
c-19 -19 -12 -26 14 -14 14 7 25 15 25 20 0 4 7 7 16 7 13 0 11 -6 -9 -26 -15
-14 -32 -41 -39 -60 -7 -19 -16 -34 -20 -34 -11 0 -9 11 6 40 12 21 12 26 -2
36 -13 9 -14 15 -4 26 6 8 8 19 4 23 -4 5 -1 5 6 0 10 -5 11 -10 3 -18z m639
13 c0 -5 -10 -10 -22 -10 -19 0 -20 2 -8 10 19 13 30 13 30 0z m-666 -75 c-4
-8 -7 -15 -9 -15 -2 0 -5 7 -9 15 -3 9 0 15 9 15 9 0 12 -6 9 -15z m236 -15
c0 -5 -5 -10 -11 -10 -5 0 -7 5 -4 10 3 6 8 10 11 10 2 0 4 -4 4 -10z m71 -67
c-12 -20 -14 -14 -5 12 4 9 9 14 11 11 3 -2 0 -13 -6 -23z"/>
<path d="M1413 914 c0 -19 4 -30 8 -23 4 6 13 8 20 5 8 -4 7 -2 -2 6 -9 7 -14
18 -12 25 2 6 0 14 -5 17 -5 3 -9 -11 -9 -30z"/>
<path d="M275 930 c3 -5 8 -10 11 -10 2 0 4 5 4 10 0 6 -5 10 -11 10 -5 0 -7
-4 -4 -10z"/>
<path d="M281 864 c0 -11 3 -14 6 -6 3 7 2 16 -1 19 -3 4 -6 -2 -5 -13z"/>
<path d="M985 739 c-11 -17 1 -21 15 -4 8 9 8 15 2 15 -6 0 -14 -5 -17 -11z"/>
<path d="M960 610 c0 -5 8 -14 19 -19 21 -12 32 -62 19 -85 -11 -19 16 -74 40
-83 9 -4 21 -11 25 -17 25 -35 -32 132 -63 182 -19 31 -40 43 -40 22z"/>
<path d="M2000 294 c-33 -13 -33 -14 -5 -8 17 3 34 10 40 15 11 11 8 11 -35
-7z"/>
<path d="M1845 271 c-48 -22 -83 -66 -60 -75 9 -3 20 -17 27 -31 10 -21 38
-36 38 -20 0 14 -31 64 -41 67 -7 2 10 14 38 26 l49 21 63 -19 c56 -18 123
-28 81 -13 -8 3 -31 12 -50 21 -25 11 -105 43 -105 42 0 0 -18 -9 -40 -19z"/>
<path d="M1677 164 c-16 -16 -5 -30 23 -32 17 -1 30 2 30 8 0 5 7 7 15 4 8 -4
15 -1 15 5 0 6 -1 11 -2 11 -58 9 -75 10 -81 4z"/>
<path d="M763 129 c-18 -5 -33 -13 -33 -18 0 -9 64 10 76 22 9 9 -2 8 -43 -4z"/>
</g>
</svg>
